<svg width="192" height="192" viewBox="0 0 192 192" fill="none" xmlns="http://www.w3.org/2000/svg">
    <path d="M155.975 78.079C155.992 77.5785 156 77.076 156 76.5714C156 51.9553 136.122 32 111.6 32C92.1479 32 75.6175 44.5574 69.6141 62.0375C65.3027 59.7789 60.3999 58.5019 55.2 58.5019C37.9687 58.5019 24 72.5246 24 89.8224C24 107.12 37.9687 121.143 55.2 121.143L111.6 121.143C111.62 121.143 111.64 121.143 111.66 121.143H145.2C157.792 121.143 168 110.896 168 98.2548C168 89.5266 163.133 81.9395 155.975 78.079Z" fill="white"/>
    <path fill-rule="evenodd" clip-rule="evenodd" d="M45.6001 132C45.6001 129.791 47.391 128 49.6001 128H141.6C143.809 128 145.6 129.791 145.6 132C145.6 134.209 143.809 136 141.6 136H49.6001C47.391 136 45.6001 134.209 45.6001 132ZM45.6001 148C45.6001 145.791 47.391 144 49.6001 144H141.6C143.809 144 145.6 145.791 145.6 148C145.6 150.209 143.809 152 141.6 152H49.6001C47.391 152 45.6001 150.209 45.6001 148ZM49.6001 160C47.391 160 45.6001 161.791 45.6001 164C45.6001 166.209 47.391 168 49.6001 168H141.6C143.809 168 145.6 166.209 145.6 164C145.6 161.791 143.809 160 141.6 160H49.6001Z" fill="black" fill-opacity="0.4"/>
    </svg>
    