<svg width="360" height="74" viewBox="0 0 360 74" fill="none" xmlns="http://www.w3.org/2000/svg">
    <g filter="url(#filter0_d_4_20)">
    <g filter="url(#filter1_i_4_20)">
    <path d="M38 66C55.1208 66 69 52.7924 69 36.5C69 20.2076 55.1208 7 38 7C20.8792 7 7 20.2076 7 36.5C7 52.7924 20.8792 66 38 66Z" fill="#D9D9D9"/>
    <path d="M38 66C55.1208 66 69 52.7924 69 36.5C69 20.2076 55.1208 7 38 7C20.8792 7 7 20.2076 7 36.5C7 52.7924 20.8792 66 38 66Z" fill="url(#paint0_linear_4_20)" fill-opacity="0.83"/>
    </g>
    </g>
    <g filter="url(#filter2_di_4_20)">
    <g style="mix-blend-mode:color">
    <path d="M13.5157 20C18.7711 20 23.0314 16.7665 23.0314 12.7778C23.0314 8.78907 18.7711 5.55557 13.5157 5.55557C8.26033 5.55557 4 8.78907 4 12.7778C4 16.7665 8.26033 20 13.5157 20Z" fill="white"/>
    </g>
    <g style="mix-blend-mode:color">
    <path d="M20.4654 20C26.016 20 30.5157 15.5228 30.5157 10C30.5157 4.47715 26.016 0 20.4654 0C14.9148 0 10.4151 4.47715 10.4151 10C10.4151 15.5228 14.9148 20 20.4654 20Z" fill="white"/>
    </g>
    <g style="mix-blend-mode:color">
    <path d="M30.5157 20C34.6492 20 38 16.1447 38 11.3889C38 6.63313 34.6492 2.7778 30.5157 2.7778C26.3823 2.7778 23.0314 6.63313 23.0314 11.3889C23.0314 16.1447 26.3823 20 30.5157 20Z" fill="white"/>
    </g>
    <g style="mix-blend-mode:color">
    <path d="M32.0126 13.6111H10.4151V20H32.0126V13.6111Z" fill="white"/>
    </g>
    </g>
    <g filter="url(#filter3_di_4_20)">
    <path d="M103.875 37C103.875 40.375 103.266 43.2917 102.047 45.75C100.828 48.2083 99.1563 50.1042 97.0313 51.4375C94.9063 52.7708 92.4792 53.4375 89.75 53.4375C87.0208 53.4375 84.5938 52.7708 82.4688 51.4375C80.3438 50.1042 78.6719 48.2083 77.4531 45.75C76.2344 43.2917 75.625 40.375 75.625 37C75.625 33.625 76.2344 30.7083 77.4531 28.25C78.6719 25.7917 80.3438 23.8958 82.4688 22.5625C84.5938 21.2292 87.0208 20.5625 89.75 20.5625C92.4792 20.5625 94.9063 21.2292 97.0313 22.5625C99.1563 23.8958 100.828 25.7917 102.047 28.25C103.266 30.7083 103.875 33.625 103.875 37ZM100.125 37C100.125 34.2292 99.6615 31.8906 98.7344 29.9844C97.8177 28.0781 96.5729 26.6354 95 25.6562C93.4375 24.6771 91.6875 24.1875 89.75 24.1875C87.8125 24.1875 86.0573 24.6771 84.4844 25.6562C82.9219 26.6354 81.6771 28.0781 80.75 29.9844C79.8333 31.8906 79.375 34.2292 79.375 37C79.375 39.7708 79.8333 42.1094 80.75 44.0156C81.6771 45.9219 82.9219 47.3646 84.4844 48.3437C86.0573 49.3229 87.8125 49.8125 89.75 49.8125C91.6875 49.8125 93.4375 49.3229 95 48.3437C96.5729 47.3646 97.8177 45.9219 98.7344 44.0156C99.6615 42.1094 100.125 39.7708 100.125 37ZM109.891 62V29H113.453V32.8125H113.891C114.161 32.3958 114.536 31.8646 115.016 31.2187C115.505 30.5625 116.203 29.9792 117.109 29.4688C118.026 28.9479 119.266 28.6875 120.828 28.6875C122.849 28.6875 124.63 29.1927 126.172 30.2031C127.714 31.2135 128.917 32.6458 129.781 34.5C130.646 36.3542 131.078 38.5417 131.078 41.0625C131.078 43.6042 130.646 45.8073 129.781 47.6719C128.917 49.526 127.719 50.9635 126.188 51.9844C124.656 52.9948 122.891 53.5 120.891 53.5C119.349 53.5 118.115 53.2448 117.188 52.7344C116.26 52.2135 115.547 51.625 115.047 50.9687C114.547 50.3021 114.161 49.75 113.891 49.3125H113.578V62H109.891ZM113.516 41C113.516 42.8125 113.781 44.4115 114.312 45.7969C114.844 47.1719 115.62 48.25 116.641 49.0312C117.661 49.8021 118.911 50.1875 120.391 50.1875C121.932 50.1875 123.219 49.7813 124.25 48.9687C125.292 48.1458 126.073 47.0417 126.594 45.6562C127.125 44.2604 127.391 42.7083 127.391 41C127.391 39.3125 127.13 37.7917 126.609 36.4375C126.099 35.0729 125.323 33.9948 124.281 33.2031C123.25 32.401 121.953 32 120.391 32C118.891 32 117.63 32.3802 116.609 33.1406C115.589 33.8906 114.818 34.9427 114.297 36.2969C113.776 37.6406 113.516 39.2083 113.516 41ZM146.766 53.5C144.453 53.5 142.458 52.9896 140.781 51.9688C139.115 50.9375 137.828 49.5 136.922 47.6562C136.026 45.8021 135.578 43.6458 135.578 41.1875C135.578 38.7292 136.026 36.5625 136.922 34.6875C137.828 32.8021 139.089 31.3333 140.703 30.2812C142.328 29.2187 144.224 28.6875 146.391 28.6875C147.641 28.6875 148.875 28.8958 150.094 29.3125C151.313 29.7292 152.422 30.4062 153.422 31.3438C154.422 32.2708 155.219 33.5 155.813 35.0312C156.406 36.5625 156.703 38.4479 156.703 40.6875V42.25H138.203V39.0625H152.953C152.953 37.7083 152.682 36.5 152.141 35.4375C151.609 34.375 150.849 33.5365 149.859 32.9219C148.88 32.3073 147.724 32 146.391 32C144.922 32 143.651 32.3646 142.578 33.0937C141.516 33.8125 140.698 34.75 140.125 35.9062C139.552 37.0625 139.266 38.3021 139.266 39.625V41.75C139.266 43.5625 139.578 45.099 140.203 46.3594C140.839 47.6094 141.719 48.5625 142.844 49.2188C143.969 49.8646 145.276 50.1875 146.766 50.1875C147.734 50.1875 148.609 50.0521 149.391 49.7812C150.182 49.5 150.865 49.0833 151.438 48.5312C152.01 47.9687 152.453 47.2708 152.766 46.4375L156.328 47.4375C155.953 48.6458 155.323 49.7083 154.438 50.625C153.552 51.5312 152.458 52.2396 151.156 52.75C149.854 53.25 148.391 53.5 146.766 53.5ZM166 38.5625V53H162.313V29H165.875V32.75H166.188C166.75 31.5313 167.604 30.5521 168.75 29.8125C169.896 29.0625 171.375 28.6875 173.188 28.6875C174.813 28.6875 176.234 29.0208 177.453 29.6875C178.672 30.3438 179.62 31.3438 180.297 32.6875C180.974 34.0208 181.313 35.7083 181.313 37.75V53H177.625V38C177.625 36.1146 177.135 34.6458 176.156 33.5937C175.177 32.5312 173.833 32 172.125 32C170.948 32 169.896 32.2552 168.969 32.7656C168.052 33.276 167.328 34.0208 166.797 35C166.266 35.9792 166 37.1667 166 38.5625ZM192.129 53L183.379 21H187.316L194.004 47.0625H194.316L201.129 21H205.504L212.316 47.0625H212.629L219.316 21H223.254L214.504 53H210.504L203.441 27.5H203.191L196.129 53H192.129ZM235.41 53.5C233.098 53.5 231.103 52.9896 229.426 51.9688C227.759 50.9375 226.473 49.5 225.566 47.6562C224.671 45.8021 224.223 43.6458 224.223 41.1875C224.223 38.7292 224.671 36.5625 225.566 34.6875C226.473 32.8021 227.733 31.3333 229.348 30.2812C230.973 29.2187 232.868 28.6875 235.035 28.6875C236.285 28.6875 237.52 28.8958 238.738 29.3125C239.957 29.7292 241.066 30.4062 242.066 31.3438C243.066 32.2708 243.863 33.5 244.457 35.0312C245.051 36.5625 245.348 38.4479 245.348 40.6875V42.25H226.848V39.0625H241.598C241.598 37.7083 241.327 36.5 240.785 35.4375C240.254 34.375 239.493 33.5365 238.504 32.9219C237.525 32.3073 236.368 32 235.035 32C233.566 32 232.296 32.3646 231.223 33.0937C230.16 33.8125 229.342 34.75 228.77 35.9062C228.197 37.0625 227.91 38.3021 227.91 39.625V41.75C227.91 43.5625 228.223 45.099 228.848 46.3594C229.483 47.6094 230.363 48.5625 231.488 49.2188C232.613 49.8646 233.921 50.1875 235.41 50.1875C236.379 50.1875 237.254 50.0521 238.035 49.7812C238.827 49.5 239.509 49.0833 240.082 48.5312C240.655 47.9687 241.098 47.2708 241.41 46.4375L244.973 47.4375C244.598 48.6458 243.967 49.7083 243.082 50.625C242.197 51.5312 241.103 52.2396 239.801 52.75C238.499 53.25 237.035 53.5 235.41 53.5ZM258.02 53.5625C256.499 53.5625 255.118 53.276 253.879 52.7031C252.639 52.1198 251.655 51.2812 250.926 50.1875C250.197 49.0833 249.832 47.75 249.832 46.1875C249.832 44.8125 250.103 43.6979 250.645 42.8437C251.186 41.9792 251.91 41.3021 252.816 40.8125C253.723 40.3229 254.723 39.9583 255.816 39.7187C256.921 39.4688 258.03 39.2708 259.145 39.125C260.603 38.9375 261.785 38.7969 262.691 38.7031C263.608 38.599 264.275 38.4271 264.691 38.1875C265.118 37.9479 265.332 37.5312 265.332 36.9375V36.8125C265.332 35.2708 264.91 34.0729 264.066 33.2187C263.233 32.3646 261.967 31.9375 260.27 31.9375C258.509 31.9375 257.129 32.3229 256.129 33.0937C255.129 33.8646 254.426 34.6875 254.02 35.5625L250.52 34.3125C251.145 32.8542 251.978 31.7187 253.02 30.9062C254.072 30.0833 255.217 29.5104 256.457 29.1875C257.707 28.8542 258.936 28.6875 260.145 28.6875C260.915 28.6875 261.801 28.7812 262.801 28.9687C263.811 29.1458 264.785 29.5156 265.723 30.0781C266.671 30.6406 267.457 31.4896 268.082 32.625C268.707 33.7604 269.02 35.2812 269.02 37.1875V53H265.332V49.75H265.145C264.895 50.2708 264.478 50.8281 263.895 51.4219C263.311 52.0156 262.535 52.5208 261.566 52.9375C260.598 53.3542 259.415 53.5625 258.02 53.5625ZM258.582 50.25C260.04 50.25 261.27 49.9635 262.27 49.3906C263.28 48.8177 264.04 48.0781 264.551 47.1719C265.072 46.2656 265.332 45.3125 265.332 44.3125V40.9375C265.176 41.125 264.832 41.2969 264.301 41.4531C263.78 41.599 263.176 41.7292 262.488 41.8437C261.811 41.9479 261.15 42.0417 260.504 42.125C259.868 42.1979 259.353 42.2604 258.957 42.3125C257.999 42.4375 257.103 42.6406 256.27 42.9219C255.447 43.1927 254.78 43.6042 254.27 44.1562C253.77 44.6979 253.52 45.4375 253.52 46.375C253.52 47.6562 253.993 48.625 254.941 49.2812C255.9 49.9271 257.113 50.25 258.582 50.25ZM286.188 29V32.125H273.75V29H286.188ZM277.375 23.25H281.063V46.125C281.063 47.1667 281.214 47.9479 281.516 48.4687C281.828 48.9792 282.224 49.3229 282.703 49.5C283.193 49.6667 283.708 49.75 284.25 49.75C284.656 49.75 284.99 49.7292 285.25 49.6875C285.51 49.6354 285.719 49.5937 285.875 49.5625L286.625 52.875C286.375 52.9687 286.026 53.0625 285.578 53.1563C285.13 53.2604 284.563 53.3125 283.875 53.3125C282.833 53.3125 281.813 53.0885 280.813 52.6406C279.823 52.1927 279 51.5104 278.344 50.5938C277.698 49.6771 277.375 48.5208 277.375 47.125V23.25ZM295.938 38.5625V53H292.25V21H295.938V32.75H296.25C296.813 31.5104 297.656 30.526 298.781 29.7969C299.917 29.0573 301.427 28.6875 303.312 28.6875C304.948 28.6875 306.38 29.0156 307.609 29.6719C308.839 30.3177 309.792 31.3125 310.469 32.6562C311.156 33.9896 311.5 35.6875 311.5 37.75V53H307.813V38C307.813 36.0937 307.318 34.6198 306.328 33.5781C305.349 32.526 303.99 32 302.25 32C301.042 32 299.958 32.2552 299 32.7656C298.052 33.276 297.302 34.0208 296.75 35C296.208 35.9792 295.938 37.1667 295.938 38.5625ZM328.309 53.5C325.996 53.5 324.001 52.9896 322.324 51.9688C320.658 50.9375 319.371 49.5 318.465 47.6562C317.569 45.8021 317.121 43.6458 317.121 41.1875C317.121 38.7292 317.569 36.5625 318.465 34.6875C319.371 32.8021 320.632 31.3333 322.246 30.2812C323.871 29.2187 325.767 28.6875 327.934 28.6875C329.184 28.6875 330.418 28.8958 331.637 29.3125C332.855 29.7292 333.965 30.4062 334.965 31.3438C335.965 32.2708 336.762 33.5 337.355 35.0312C337.949 36.5625 338.246 38.4479 338.246 40.6875V42.25H319.746V39.0625H334.496C334.496 37.7083 334.225 36.5 333.684 35.4375C333.152 34.375 332.392 33.5365 331.402 32.9219C330.423 32.3073 329.267 32 327.934 32C326.465 32 325.194 32.3646 324.121 33.0937C323.059 33.8125 322.241 34.75 321.668 35.9062C321.095 37.0625 320.809 38.3021 320.809 39.625V41.75C320.809 43.5625 321.121 45.099 321.746 46.3594C322.382 47.6094 323.262 48.5625 324.387 49.2188C325.512 49.8646 326.819 50.1875 328.309 50.1875C329.277 50.1875 330.152 50.0521 330.934 49.7812C331.725 49.5 332.408 49.0833 332.98 48.5312C333.553 47.9687 333.996 47.2708 334.309 46.4375L337.871 47.4375C337.496 48.6458 336.866 49.7083 335.98 50.625C335.095 51.5312 334.001 52.2396 332.699 52.75C331.397 53.25 329.934 53.5 328.309 53.5ZM343.855 53V29H347.418V32.625H347.668C348.105 31.4375 348.897 30.474 350.043 29.7344C351.189 28.9948 352.48 28.625 353.918 28.625C354.189 28.625 354.527 28.6302 354.934 28.6406C355.34 28.651 355.647 28.6667 355.855 28.6875V32.4375C355.73 32.4062 355.444 32.3594 354.996 32.2969C354.559 32.224 354.095 32.1875 353.605 32.1875C352.439 32.1875 351.397 32.4323 350.48 32.9219C349.574 33.401 348.855 34.0677 348.324 34.9219C347.803 35.7656 347.543 36.7292 347.543 37.8125V53H343.855Z" fill="white"/>
    </g>
    <defs>
    <filter id="filter0_d_4_20" x="3" y="7" width="70" height="67" filterUnits="userSpaceOnUse" color-interpolation-filters="sRGB">
    <feFlood flood-opacity="0" result="BackgroundImageFix"/>
    <feColorMatrix in="SourceAlpha" type="matrix" values="0 0 0 0 0 0 0 0 0 0 0 0 0 0 0 0 0 0 127 0" result="hardAlpha"/>
    <feOffset dy="4"/>
    <feGaussianBlur stdDeviation="2"/>
    <feComposite in2="hardAlpha" operator="out"/>
    <feColorMatrix type="matrix" values="0 0 0 0 0 0 0 0 0 0 0 0 0 0 0 0 0 0 0.25 0"/>
    <feBlend mode="normal" in2="BackgroundImageFix" result="effect1_dropShadow_4_20"/>
    <feBlend mode="normal" in="SourceGraphic" in2="effect1_dropShadow_4_20" result="shape"/>
    </filter>
    <filter id="filter1_i_4_20" x="7" y="7" width="64" height="63" filterUnits="userSpaceOnUse" color-interpolation-filters="sRGB">
    <feFlood flood-opacity="0" result="BackgroundImageFix"/>
    <feBlend mode="normal" in="SourceGraphic" in2="BackgroundImageFix" result="shape"/>
    <feColorMatrix in="SourceAlpha" type="matrix" values="0 0 0 0 0 0 0 0 0 0 0 0 0 0 0 0 0 0 127 0" result="hardAlpha"/>
    <feOffset dx="2" dy="4"/>
    <feGaussianBlur stdDeviation="2.5"/>
    <feComposite in2="hardAlpha" operator="arithmetic" k2="-1" k3="1"/>
    <feColorMatrix type="matrix" values="0 0 0 0 0 0 0 0 0 0 0 0 0 0 0 0 0 0 0.25 0"/>
    <feBlend mode="normal" in2="shape" result="effect1_innerShadow_4_20"/>
    </filter>
    <filter id="filter2_di_4_20" x="0" y="0" width="42" height="28" filterUnits="userSpaceOnUse" color-interpolation-filters="sRGB">
    <feFlood flood-opacity="0" result="BackgroundImageFix"/>
    <feColorMatrix in="SourceAlpha" type="matrix" values="0 0 0 0 0 0 0 0 0 0 0 0 0 0 0 0 0 0 127 0" result="hardAlpha"/>
    <feOffset dy="4"/>
    <feGaussianBlur stdDeviation="2"/>
    <feComposite in2="hardAlpha" operator="out"/>
    <feColorMatrix type="matrix" values="0 0 0 0 0 0 0 0 0 0 0 0 0 0 0 0 0 0 0.25 0"/>
    <feBlend mode="normal" in2="BackgroundImageFix" result="effect1_dropShadow_4_20"/>
    <feBlend mode="normal" in="SourceGraphic" in2="effect1_dropShadow_4_20" result="shape"/>
    <feColorMatrix in="SourceAlpha" type="matrix" values="0 0 0 0 0 0 0 0 0 0 0 0 0 0 0 0 0 0 127 0" result="hardAlpha"/>
    <feOffset dy="4"/>
    <feGaussianBlur stdDeviation="2"/>
    <feComposite in2="hardAlpha" operator="arithmetic" k2="-1" k3="1"/>
    <feColorMatrix type="matrix" values="0 0 0 0 0 0 0 0 0 0 0 0 0 0 0 0 0 0 0.25 0"/>
    <feBlend mode="normal" in2="shape" result="effect2_innerShadow_4_20"/>
    </filter>
    <filter id="filter3_di_4_20" x="71.625" y="20.5625" width="288.23" height="49.4375" filterUnits="userSpaceOnUse" color-interpolation-filters="sRGB">
    <feFlood flood-opacity="0" result="BackgroundImageFix"/>
    <feColorMatrix in="SourceAlpha" type="matrix" values="0 0 0 0 0 0 0 0 0 0 0 0 0 0 0 0 0 0 127 0" result="hardAlpha"/>
    <feOffset dy="4"/>
    <feGaussianBlur stdDeviation="2"/>
    <feComposite in2="hardAlpha" operator="out"/>
    <feColorMatrix type="matrix" values="0 0 0 0 0 0 0 0 0 0 0 0 0 0 0 0 0 0 0.25 0"/>
    <feBlend mode="normal" in2="BackgroundImageFix" result="effect1_dropShadow_4_20"/>
    <feBlend mode="normal" in="SourceGraphic" in2="effect1_dropShadow_4_20" result="shape"/>
    <feColorMatrix in="SourceAlpha" type="matrix" values="0 0 0 0 0 0 0 0 0 0 0 0 0 0 0 0 0 0 127 0" result="hardAlpha"/>
    <feOffset dy="4"/>
    <feGaussianBlur stdDeviation="2"/>
    <feComposite in2="hardAlpha" operator="arithmetic" k2="-1" k3="1"/>
    <feColorMatrix type="matrix" values="0 0 0 0 0 0 0 0 0 0 0 0 0 0 0 0 0 0 0.25 0"/>
    <feBlend mode="normal" in2="shape" result="effect2_innerShadow_4_20"/>
    </filter>
    <linearGradient id="paint0_linear_4_20" x1="20.2087" y1="16.6442" x2="55.6548" y2="64.2969" gradientUnits="userSpaceOnUse">
    <stop stop-color="#FE1515"/>
    <stop offset="0.901042" stop-color="#FFE500" stop-opacity="0.37"/>
    </linearGradient>
    </defs>
    </svg>
    