<svg width="192" height="192" viewBox="0 0 192 192" fill="none" xmlns="http://www.w3.org/2000/svg">
    <path d="M155.975 78.5066C155.992 78.0013 156 77.4939 156 76.9846C156 52.1317 136.122 31.9846 111.6 31.9846C92.1479 31.9846 75.6175 44.6627 69.6141 62.3108C65.3027 60.0305 60.3999 58.7413 55.2 58.7413C37.9687 58.7413 24 72.8988 24 90.3629C24 107.827 37.9687 121.985 55.2 121.985L111.6 121.985C111.62 121.985 111.64 121.985 111.66 121.985H145.2C157.792 121.985 168 111.639 168 98.8764C168 90.0643 163.133 82.4042 155.975 78.5066Z" fill="white"/>
    <path fill-rule="evenodd" clip-rule="evenodd" d="M108.428 133.368C109.11 131.267 111.367 130.117 113.468 130.8C115.569 131.482 116.719 133.739 116.036 135.84L105.7 167.65C105.018 169.751 102.761 170.901 100.66 170.218C98.5589 169.536 97.4091 167.279 98.0917 165.178L108.428 133.368ZM92.3217 133.368C93.0043 131.267 95.261 130.117 97.362 130.8C99.463 131.482 100.613 133.739 99.9301 135.84L86.3009 177.786C85.6182 179.888 83.3616 181.037 81.2606 180.355C79.1595 179.672 78.0097 177.415 78.6924 175.314L92.3217 133.368ZM81.2563 130.8C79.1553 130.117 76.8987 131.267 76.216 133.368L69.1737 155.042C68.491 157.143 69.6408 159.399 71.7418 160.082C73.8428 160.765 76.0995 159.615 76.7821 157.514L83.8244 135.84C84.5071 133.739 83.3573 131.482 81.2563 130.8Z" fill="#B4F5F2"/>
    </svg>
    