<svg width="144" height="144" viewBox="0 0 144 144" fill="none" xmlns="http://www.w3.org/2000/svg">
<g clip-path="url(#clip0_209_129)">
<path fill-rule="evenodd" clip-rule="evenodd" d="M72 141.6C110.439 141.6 141.6 110.439 141.6 72C141.6 33.561 110.439 2.4 72 2.4C33.561 2.4 2.4 33.561 2.4 72C2.4 110.439 33.561 141.6 72 141.6ZM144 72C144 111.765 111.765 144 72 144C32.2355 144 0 111.765 0 72C0 32.2355 32.2355 0 72 0C111.765 0 144 32.2355 144 72Z" fill="#FFF308" fill-opacity="0.2"/>
<path fill-rule="evenodd" clip-rule="evenodd" d="M71.6 132C104.958 132 132 104.958 132 71.6C132 38.242 104.958 11.2 71.6 11.2C38.242 11.2 11.2 38.242 11.2 71.6C11.2 104.958 38.242 132 71.6 132ZM135.2 71.6C135.2 106.725 106.725 135.2 71.6 135.2C36.4747 135.2 8 106.725 8 71.6C8 36.4747 36.4747 8 71.6 8C106.725 8 135.2 36.4747 135.2 71.6Z" fill="#FFF308" fill-opacity="0.6"/>
<path fill-rule="evenodd" clip-rule="evenodd" d="M71.6 125.6C101.423 125.6 125.6 101.423 125.6 71.6C125.6 41.7766 101.423 17.6 71.6 17.6C41.7766 17.6 17.6 41.7766 17.6 71.6C17.6 101.423 41.7766 125.6 71.6 125.6Z" fill="#FFEC65"/>
</g>
<defs>
<clipPath id="clip0_209_129">
<rect width="144" height="144" fill="white"/>
</clipPath>
</defs>
</svg>
